<svg width="96" height="96" viewBox="0 0 96 96" fill="none" xmlns="http://www.w3.org/2000/svg">
<path d="M87 25.23H86.985C86.91 21.225 83.715 18 79.8 18H16.2C12.285 18 9.09 21.225 9.015 25.23H9C9 25.245 9.015 25.26 9.015 25.29C9.015 25.32 9 25.335 9 25.365V70.635C9 74.7 12.24 78 16.2 78H79.8C83.76 78 87 74.7 87 70.635V25.365C87 25.335 86.985 25.32 86.985 25.29C86.985 25.26 87 25.245 87 25.23ZM76.005 21L48 40.665L19.995 21H76.005ZM15.045 21.195L48 44.34L80.955 21.195C82.68 21.705 83.955 23.325 83.985 25.275C83.94 26.235 82.68 27.435 82.035 27.885L48 52.155L13.95 27.87C13.32 27.435 12.06 26.235 12.015 25.275C12.045 23.325 13.32 21.705 15.045 21.195ZM18 34.5V75H16.2C13.89 75 12 73.035 12 70.635V30.165C12.105 30.24 12.18 30.3 12.21 30.33L18.075 34.5H18ZM75 75H21V36.585L48 55.845L75 36.585V75ZM84 70.635C84 73.035 82.11 75 79.8 75H78V34.5H77.925L83.775 30.33C83.805 30.3 83.895 30.24 84 30.165V70.635Z" fill="url(#paint0_linear)"/>
<path d="M84 30.165V70.635C84 73.035 82.11 75 79.8 75H78V34.5H77.925L83.775 30.33C83.805 30.3 83.895 30.24 84 30.165Z" fill="url(#paint1_linear)"/>
<path d="M18.075 34.5H18V75H16.2C13.89 75 12 73.035 12 70.635V30.165C12.105 30.24 12.18 30.3 12.21 30.33L18.075 34.5Z" fill="url(#paint2_linear)"/>
<path d="M83.985 25.275C83.94 26.235 82.68 27.435 82.035 27.885L48 52.155L13.95 27.87C13.32 27.435 12.06 26.235 12.015 25.275C12.045 23.325 13.32 21.705 15.045 21.195L48 44.34L80.955 21.195C82.68 21.705 83.955 23.325 83.985 25.275Z" fill="url(#paint3_linear)"/>
<defs>
<linearGradient id="paint0_linear" x1="48" y1="18" x2="48" y2="78" gradientUnits="userSpaceOnUse">
<stop stop-color="#1A6DFF"/>
<stop offset="1" stop-color="#C822FF"/>
</linearGradient>
<linearGradient id="paint1_linear" x1="80.9625" y1="30.165" x2="80.9625" y2="75" gradientUnits="userSpaceOnUse">
<stop stop-color="#6DC7FF"/>
<stop offset="1" stop-color="#E6ABFF"/>
</linearGradient>
<linearGradient id="paint2_linear" x1="15.0375" y1="30.165" x2="15.0375" y2="75" gradientUnits="userSpaceOnUse">
<stop stop-color="#6DC7FF"/>
<stop offset="1" stop-color="#E6ABFF"/>
</linearGradient>
<linearGradient id="paint3_linear" x1="48" y1="21.195" x2="48" y2="52.155" gradientUnits="userSpaceOnUse">
<stop stop-color="#6DC7FF"/>
<stop offset="1" stop-color="#E6ABFF"/>
</linearGradient>
</defs>
</svg>
