<svg width="96" height="96" viewBox="0 0 96 96" fill="none" xmlns="http://www.w3.org/2000/svg">
<path d="M33.0105 52.875L58.533 37.5L40.5165 56.25L56.319 68.6625C59.1495 69.9075 60.18 67.314 60.18 67.314L67.4175 30.5625C67.4175 30.5625 67.5405 29.625 67.485 29.4375C66.969 27.6855 64.143 28.95 64.1445 28.9515L22.809 45.282C22.809 45.282 20.853 45.9555 21.0075 47.199C21.162 48.444 22.758 49.0125 22.758 49.0125L33.0135 52.875" fill="url(#paint0_linear)"/>
<path d="M68.9235 29.0145C68.5785 27.8385 67.635 27.111 66.333 27.0195C66.0705 27 64.5945 27.06 63.5985 27.567L63.594 27.5565L22.3215 43.8645C20.994 44.3205 19.53 45.399 19.5 46.995C19.497 47.121 19.5045 47.2515 19.521 47.385C19.7805 49.485 22.002 50.337 22.2315 50.4165L31.797 54.0195C32.532 56.382 34.959 64.1805 35.481 65.8485C35.832 66.9645 36.411 68.412 37.4715 68.808C37.7775 68.934 38.103 69 38.442 69C39.363 69 39.963 68.532 40.1865 68.3295L46.041 62.4945L55.3935 69.84C55.491 69.918 55.6005 69.984 55.716 70.0335C56.4915 70.3755 57.18 70.4985 57.7665 70.4985C58.38 70.4985 58.884 70.365 59.2635 70.209C60.864 69.552 61.5045 68.0385 61.5735 67.8675C61.6065 67.782 61.6335 67.6935 61.6515 67.6035L68.904 30.7575C69.0705 29.5035 68.9805 29.208 68.9235 29.0145ZM34.7925 53.5515L49.6005 44.631L39.438 55.2105C39.258 55.3965 39.156 55.629 39.0945 55.8735C39.09 55.8915 37.5855 62.5185 37.5855 62.5185L34.7925 53.5515ZM65.9445 30.282L58.746 66.837C58.6605 66.984 58.446 67.3035 58.1265 67.434C57.858 67.5435 57.5085 67.5165 57.0855 67.3545L42.747 56.094L59.6145 38.538C60.1365 37.9965 60.1755 37.1505 59.706 36.564C59.238 35.9775 58.4055 35.8275 57.7605 36.216L32.859 51.216L23.2755 47.607C22.9815 47.4945 22.6785 47.2755 22.554 47.1225C22.7175 46.9785 23.0475 46.791 23.3595 46.6785L64.6965 30.345C64.722 30.336 64.746 30.324 64.7715 30.3135C65.148 30.1485 65.6565 30.0255 65.976 30.006C65.961 30.156 65.9445 30.2805 65.9445 30.282Z" fill="url(#paint1_linear)"/>
<path d="M48 87C26.4945 87 9 69.504 9 48C9 26.496 26.4945 9 48 9C69.5055 9 87 26.496 87 48C87 69.504 69.5055 87 48 87ZM48 12C28.1505 12 12 28.1505 12 48C12 67.8495 28.1505 84 48 84C67.8495 84 84 67.8495 84 48C84 28.1505 67.8495 12 48 12Z" fill="url(#paint2_linear)"/>
<defs>
<linearGradient id="paint0_linear" x1="44.25" y1="28.509" x2="44.25" y2="69" gradientUnits="userSpaceOnUse">
<stop stop-color="#6DC7FF"/>
<stop offset="1" stop-color="#E6ABFF"/>
</linearGradient>
<linearGradient id="paint1_linear" x1="44.25" y1="8.74952" x2="44.25" y2="87.393" gradientUnits="userSpaceOnUse">
<stop stop-color="#1A6DFF"/>
<stop offset="1" stop-color="#C822FF"/>
</linearGradient>
<linearGradient id="paint2_linear" x1="48" y1="8.7495" x2="48" y2="87.393" gradientUnits="userSpaceOnUse">
<stop stop-color="#1A6DFF"/>
<stop offset="1" stop-color="#C822FF"/>
</linearGradient>
</defs>
</svg>
